# xmcd
#
# Track frame offsets:
#	150
#	11558
#	21964
#	32933
#	47277
#	57860
#	72618
#	85113
#	101658
#	115514
#	128020
#	140477
#	152983
#	164266
#	175198
#	187873
#	199390
#	216663
#	233275
#	244315
#	254435
#	267165
#
# Disc length: 3701 seconds
#
# Revision: 0
# Processed by: cddbd v1.5.2PL0 Copyright (c) Steve Scherf et al.
# Submitted via: EasyCDDAExtractor 15.3.0.1
#
DISCID=330e7316
DTITLE=Bobby Bare - I Need Some Good News Bad -71 and What Am I Gonna Do -72
DYEAR=1971
DGENRE=Country
TTITLE0=Short And Sweet
TTITLE1=West Virginia Woman
TTITLE2=Don't You Ever Get Tired (Of Hurting Me)
TTITLE3=A Million Miles To The City
TTITLE4=Jesus Is The Only One That Love Us
TTITLE5=New York City Shw
TTITLE6=I Need Some Good News Bad
TTITLE7=Me And Bobby McGee
TTITLE8=Christian Soldier
TTITLE9=Just The Other Side Of Nowhere
TTITLE10=Loving You Was Easier
TTITLE11=Roses Are Red (My Love)
TTITLE12=Lonely Street
TTITLE13=Jesus Christ  What A Man
TTITLE14=When I Want To Love A Lady
TTITLE15=Love Forever
TTITLE16=Darby's Castle
TTITLE17=A Lot Of Soul
TTITLE18=Just In Case (A Night Like This Never Comes Again)
TTITLE19=What Am I Gonna Do
TTITLE20=When Love Is Gone
TTITLE21=Lorena
EXTD=
EXTT0=
EXTT1=
EXTT2=
EXTT3=
EXTT4=
EXTT5=
EXTT6=
EXTT7=
EXTT8=
EXTT9=
EXTT10=
EXTT11=
EXTT12=
EXTT13=
EXTT14=
EXTT15=
EXTT16=
EXTT17=
EXTT18=
EXTT19=
EXTT20=
EXTT21=
PLAYORDER=
